<!DOCTYPE svg PUBLIC "-//W3C//DTD SVG 1.1//EN" "http://www.w3.org/Graphics/SVG/1.1/DTD/svg11.dtd">
<!-- Uploaded to: SVG Repo, www.svgrepo.com, Transformed by: SVG Repo Mixer Tools -->
<svg width="64px" height="64px" viewBox="0 0 20 20" xmlns="http://www.w3.org/2000/svg" fill="#66757f">
<g id="SVGRepo_bgCarrier" stroke-width="0"/>
<g id="SVGRepo_tracerCarrier" stroke-linecap="round" stroke-linejoin="round"/>
<g id="SVGRepo_iconCarrier">
<path d="M5.5 2A1.5 1.5 0 004 3.5V4h12v-.5A1.5 1.5 0 0014.5 2h-9zM2 7.5A1.5 1.5 0 013.5 6h13A1.5 1.5 0 0118 7.5V8H2v-.5zm-1 4A1.5 1.5 0 012.5 10h15a1.5 1.5 0 011.5 1.5v7a1.5 1.5 0 01-1.5 1.5h-15A1.5 1.5 0 011 18.5v-7z" fill="#66757f"/>
</g>
</svg>